<svg xmlns="http://www.w3.org/2000/svg" width="322.9pt" height="216.56" viewBox="0 0 322.9 162.42" class="displayed_equation">
  <defs>
    <clipPath id="svg353178374706tikz_00001a">
      <path d="M 16 15.734375 L 307 15.734375 L 307 146.683594 L 16 146.683594 Z M 16 15.734375" />
    </clipPath>
    <clipPath id="svg353178374706tikz_00001b">
      <path d="M 15.734375 33 L 307 33 L 307 54 L 15.734375 54 Z M 15.734375 33" />
    </clipPath>
    <clipPath id="svg353178374706tikz_00001c">
      <path d="M 15.734375 61 L 307.167969 61 L 307.167969 82 L 15.734375 82 Z M 15.734375 61" />
    </clipPath>
    <clipPath id="svg353178374706tikz_00001d">
      <path d="M 15.734375 89 L 307 89 L 307 129 L 15.734375 129 Z M 15.734375 89" />
    </clipPath>
    <clipPath id="svg353178374706tikz_00001e">
      <path d="M 15.734375 90 L 307 90 L 307 128 L 15.734375 128 Z M 15.734375 90" />
    </clipPath>
  </defs>
  <g clip-path="url(#svg353178374706tikz_00001a)">
    <path d="M 3063.28125 156.504688 L 3063.28125 1464.942188 M 2773.320313 156.504688 L 2773.320313 1464.942188 M 2483.28125 156.504688 L 2483.28125 1464.942188 M 2193.28125 156.504688 L 2193.28125 1464.942188 M 1903.242188 156.504688 L 1903.242188 1464.942188 M 1613.164063 156.504688 L 1613.164063 1464.942188 M 1323.164063 156.504688 L 1323.164063 1464.942188 M 1033.125 156.504688 L 1033.125 1464.942188 M 743.085938 156.504688 L 743.085938 1464.942188 M 453.046875 156.504688 L 453.046875 1464.942188 M 163.007813 156.504688 L 163.007813 1464.942188 M 163.007813 1464.864063 L 3063.398438 1464.864063 M 163.007813 1278.028125 L 3063.398438 1278.028125 M 163.007813 1091.114063 L 3063.398438 1091.114063 M 163.007813 904.160938 L 3063.398438 904.160938 M 163.007813 717.246875 L 3063.398438 717.246875 M 163.007813 530.332813 L 3063.398438 530.332813 M 163.007813 343.41875 L 3063.398438 343.41875 M 163.007813 156.504688 L 3063.398438 156.504688" transform="matrix(.1 0 0 -.1 0 162.42)" fill="none" stroke-width="3.924" stroke-linejoin="round" stroke="#bababa" stroke-miterlimit="10" />
  </g>
  <g clip-path="url(#svg353178374706tikz_00001b)">
    <path d="M 161.25 1186.426563 C 166.914063 1205.60625 174.257813 1224.746875 184.023438 1242.246875 C 192.03125 1256.582813 208.28125 1277.48125 226.875 1276.54375 C 251.5625 1275.254688 260.429688 1234.942188 266.5625 1216.817188 C 273.398438 1196.582813 281.875 1176.934375 289.375 1156.973438 C 296.367188 1138.692188 302.226563 1112.715625 318.4375 1099.160938 C 335.625 1084.785938 352.578125 1095.528125 358.90625 1114.551563 C 358.90625 1114.551563 412.695313 1231.114063 412.8125 1231.348438 C 419.804688 1246.504688 428.515625 1264.785938 442.890625 1274.239063 C 485.039063 1301.895313 502.109375 1199.98125 510.859375 1176.075 C 520.273438 1150.332813 553.789063 1061.075 591.015625 1106.504688 C 595.273438 1111.621875 598.515625 1117.6375 601.484375 1123.496875 C 615.742188 1154.825 630.664063 1185.840625 644.023438 1217.48125 C 649.921875 1231.3875 654.648438 1246.075 663.554688 1258.379688 C 691.679688 1297.051563 716.757813 1249.746875 727.304688 1222.364063 L 772.226563 1123.496875 C 772.226563 1123.496875 799.179688 1060.645313 835.117188 1123.496875 L 880 1231.348438 C 880 1231.348438 915.976563 1339.160938 960.898438 1231.348438 C 960.898438 1231.348438 996.679688 1141.934375 996.835938 1141.504688 C 1001.835938 1129.04375 1008.59375 1115.60625 1017.890625 1105.840625 C 1047.226563 1075.098438 1068.359375 1140.7625 1078.710938 1161.465625 C 1090.351563 1184.785938 1101.992188 1208.028125 1113.632813 1231.348438 C 1120.859375 1245.723438 1125.15625 1262.364063 1138.515625 1272.871875 C 1168.632813 1296.660938 1187.734375 1249.082813 1195.585938 1227.285938 C 1209.726563 1187.832813 1218.789063 1144.942188 1243.828125 1110.489063 C 1276.210938 1065.801563 1306.289063 1128.184375 1316.953125 1157.246875 C 1324.882813 1178.73125 1328.789063 1201.426563 1338.242188 1222.364063 C 1338.242188 1222.364063 1383.203125 1339.160938 1419.101563 1240.29375 C 1419.101563 1240.29375 1482.03125 1015.723438 1526.953125 1114.551563 L 1571.875 1222.364063 C 1571.875 1222.364063 1607.773438 1357.090625 1661.71875 1222.364063 C 1671.210938 1193.848438 1678.90625 1163.809375 1690.703125 1136.192188 C 1697.148438 1121.114063 1712.539063 1092.559375 1732.65625 1095.60625 C 1749.179688 1098.10625 1758.789063 1122.129688 1764.609375 1135.215625 C 1774.453125 1157.559375 1785.351563 1179.395313 1795.9375 1201.348438 C 1805.585938 1221.54375 1812.617188 1244.004688 1824.6875 1262.871875 C 1847.304688 1298.457813 1873.046875 1266.895313 1886.367188 1240.29375 C 1886.367188 1240.29375 1930.703125 1133.809375 1931.289063 1132.520313 C 1936.367188 1120.29375 1940.273438 1093.340625 1956.835938 1089.903125 C 1972.539063 1086.582813 1984.960938 1108.496875 1991.914063 1119.2 C 2012.03125 1150.098438 2022.734375 1184.98125 2037.890625 1218.223438 C 2044.882813 1233.575 2050.742188 1250.60625 2060.46875 1264.629688 C 2087.578125 1303.73125 2110.390625 1259.98125 2119.960938 1231.348438 L 2155.898438 1141.465625 C 2155.898438 1141.465625 2191.835938 1060.645313 2218.789063 1105.567188 L 2272.695313 1231.348438 C 2272.695313 1231.348438 2308.632813 1339.160938 2353.554688 1231.348438 L 2389.492188 1132.520313 C 2389.492188 1132.520313 2434.414063 1042.676563 2461.367188 1132.520313 C 2461.367188 1132.520313 2506.25 1231.192188 2506.289063 1231.348438 C 2513.320313 1246.85625 2517.617188 1264.864063 2531.25 1276.465625 C 2589.257813 1325.489063 2615.15625 1047.090625 2676.992188 1096.54375 C 2697.695313 1113.10625 2711.171875 1152.442188 2719.296875 1177.246875 C 2725.429688 1195.91875 2730.976563 1214.5125 2739.179688 1232.48125 C 2745.46875 1246.309375 2754.335938 1267.715625 2768.90625 1274.98125 C 2796.640625 1288.809375 2811.640625 1230.176563 2819.453125 1213.184375 C 2831.875 1186.309375 2844.296875 1159.395313 2856.71875 1132.520313 C 2856.71875 1132.520313 2892.65625 1051.621875 2919.609375 1114.551563 C 2927.929688 1133.926563 2938.984375 1153.809375 2948.046875 1173.535938 C 2959.570313 1198.535938 2996.679688 1329.785938 3036.40625 1258.2625 L 3063.398438 1186.426563" transform="matrix(.1 0 0 -.1 0 162.42)" fill="none" stroke-width="7.847" stroke-linejoin="round" stroke="#ff8000" stroke-miterlimit="10" />
  </g>
  <g clip-path="url(#svg353178374706tikz_00001c)">
    <path d="M 161.25 907.871875 C 168.320313 927.090625 177.5 946.192188 189.6875 963.692188 C 199.6875 978.028125 220.039063 998.965625 243.242188 998.028125 C 274.101563 996.739063 285.195313 956.426563 292.890625 938.2625 C 301.484375 918.067188 311.953125 898.41875 321.445313 878.41875 C 330.117188 860.176563 337.5 834.160938 357.734375 820.645313 C 379.21875 806.23125 400.390625 816.973438 408.320313 835.996875 C 408.320313 835.996875 475.585938 952.598438 475.703125 952.79375 C 484.453125 967.989063 495.3125 986.23125 513.320313 995.684375 C 565.976563 1023.340625 587.34375 921.426563 598.28125 897.559375 C 610.039063 871.778125 651.875 782.559375 698.476563 827.95 C 703.75 833.10625 707.851563 839.04375 711.5625 844.98125 C 729.335938 876.309375 747.96875 907.325 764.726563 938.965625 C 772.070313 952.871875 777.96875 967.559375 789.179688 979.864063 C 824.296875 1018.535938 855.625 971.192188 868.789063 943.809375 L 924.921875 844.98125 C 924.921875 844.98125 958.632813 782.090625 1003.554688 844.98125 L 1059.726563 952.79375 C 1059.726563 952.79375 1104.648438 1060.645313 1160.820313 952.79375 C 1160.820313 952.79375 1205.507813 863.41875 1205.742188 862.95 C 1211.953125 850.489063 1220.429688 837.051563 1232.03125 827.325 C 1268.789063 796.54375 1295.117188 862.207813 1308.085938 882.95 C 1322.617188 906.23125 1337.1875 929.5125 1351.71875 952.79375 C 1360.742188 967.207813 1366.132813 983.809375 1382.8125 994.35625 C 1420.46875 1018.10625 1444.375 970.567188 1454.179688 948.692188 C 1471.875 909.317188 1483.125 866.3875 1514.453125 831.934375 C 1554.960938 787.285938 1592.578125 849.66875 1605.898438 878.73125 C 1615.742188 900.176563 1620.625 922.910938 1632.539063 943.809375 C 1632.539063 943.809375 1688.671875 1060.645313 1733.59375 961.778125 C 1733.59375 961.778125 1812.226563 737.16875 1868.359375 835.996875 L 1924.492188 943.809375 C 1924.492188 943.809375 1969.414063 1078.575 2036.875 943.809375 C 2048.710938 915.332813 2058.359375 885.29375 2073.085938 857.6375 C 2081.132813 842.559375 2100.3125 814.004688 2125.546875 817.051563 C 2146.132813 819.551563 2158.164063 843.535938 2165.429688 856.7 C 2177.773438 879.004688 2191.40625 900.879688 2204.570313 922.832813 C 2216.679688 943.028125 2225.507813 965.489063 2240.507813 984.35625 C 2268.789063 1019.942188 2301.054688 988.301563 2317.617188 961.778125 C 2317.617188 961.778125 2373.125 855.29375 2373.75 853.965625 C 2380.15625 841.739063 2385.039063 814.825 2405.703125 811.3875 C 2425.351563 808.067188 2440.898438 829.98125 2449.609375 840.684375 C 2474.765625 871.54375 2488.085938 906.465625 2507.03125 939.66875 C 2515.78125 955.020313 2523.085938 972.090625 2535.234375 986.075 C 2569.140625 1025.215625 2597.65625 981.465625 2609.648438 952.79375 L 2654.53125 862.95 C 2654.53125 862.95 2699.453125 782.090625 2733.164063 827.0125 L 2800.546875 952.79375 C 2800.546875 952.79375 2845.46875 1060.645313 2901.601563 952.79375 L 2946.523438 853.965625 C 2946.523438 853.965625 3002.734375 764.082813 3036.40625 853.965625 C 3036.40625 853.965625 3051.953125 881.348438 3066.71875 907.285938" transform="matrix(.1 0 0 -.1 0 162.42)" fill="none" stroke-width="7.847" stroke-linejoin="round" stroke="#55a4e0" stroke-miterlimit="10" />
  </g>
  <g clip-path="url(#svg353178374706tikz_00001d)" fill="none" stroke-width="7.847" stroke-linejoin="round" stroke="#a6a6a6" stroke-dasharray="29.4268,29.4268" stroke-miterlimit="10">
    <path d="M 3063.398438 530.489063 C 3063.398438 530.489063 2856.71875 674.239063 2551.210938 719.2 C 2551.210938 719.2 2281.679688 755.1375 1913.28125 530.489063 C 1750.976563 438.2625 1558.867188 359.239063 1371.484375 346.309375 C 1150.078125 331.035938 934.21875 426.075 745.273438 530.489063 C 745.273438 530.489063 520.625 701.23125 161.25 719.2" transform="matrix(.1 0 0 -.1 0 162.42)" />
    <path d="M 161.25 350.801563 C 161.25 350.801563 286.992188 278.926563 772.226563 548.496875 C 772.226563 548.496875 1086.679688 728.184375 1302.304688 719.2 C 1302.304688 719.2 1535.898438 755.1375 1895.3125 530.489063 C 1953.476563 496.739063 2015.625 468.770313 2077.773438 443.301563 C 2211.640625 388.41875 2361.953125 331.934375 2509.179688 343.73125 C 2607.382813 351.660938 2704.492188 376.426563 2797.265625 408.926563 C 2889.414063 441.23125 2978.359375 482.520313 3063.398438 530.489063" transform="matrix(.1 0 0 -.1 0 162.42)" />
  </g>
  <g clip-path="url(#svg353178374706tikz_00001e)">
    <path d="M 161.25 539.5125 C 161.25 539.5125 197.1875 764.082813 242.070313 710.215625 C 242.070313 710.215625 278.046875 647.325 305 476.621875 C 308.789063 452.520313 319.6875 410.410938 331.054688 389.082813 C 358.007813 338.223438 376.171875 399.434375 389.570313 431.23125 C 409.0625 477.48125 422.539063 525.957813 430.78125 575.45 C 430.78125 575.45 457.734375 719.2 511.640625 629.35625 C 523.867188 609.04375 528.4375 580.059375 537.65625 558.028125 C 549.21875 530.254688 565.273438 483.223438 594.140625 468.2625 C 618.515625 455.645313 629.53125 489.66875 640.859375 504.2 C 656.132813 523.770313 681.679688 547.754688 707.734375 549.98125 C 718.984375 550.957813 726.601563 541.621875 734.335938 535.098438 C 743.476563 527.442188 752.382813 522.871875 764.453125 521.114063 C 807.070313 514.864063 818.125 553.184375 843.125 577.16875 C 872.734375 605.567188 906.367188 608.301563 924.921875 566.465625 C 924.921875 566.465625 987.851563 341.817188 1032.773438 431.7 C 1048.554688 471.153125 1063.046875 511.153125 1075 551.934375 C 1084.84375 585.528125 1088.710938 621.973438 1101.210938 654.5125 C 1105.9375 666.85625 1114.0625 690.176563 1127.890625 695.29375 C 1151.757813 704.04375 1162.734375 662.871875 1167.539063 647.285938 C 1167.539063 647.285938 1203.476563 521.54375 1230.429688 395.723438 C 1233.125 383.301563 1242.539063 359.551563 1253.398438 352.364063 C 1278.945313 335.371875 1297.8125 421.465625 1301.210938 434.864063 C 1317.890625 499.590625 1334.726563 563.575 1347.226563 629.35625 C 1347.226563 629.35625 1374.179688 773.10625 1410.15625 692.246875 C 1426.757813 647.910938 1439.765625 606.035938 1448.515625 559.590625 C 1458.554688 505.840625 1465.898438 453.614063 1490.664063 404.2 C 1495.039063 395.528125 1503.398438 375.723438 1514.6875 373.692188 C 1535.78125 369.942188 1544.296875 400.29375 1548.90625 415.176563 C 1563.554688 462.285938 1574.492188 511.621875 1586.640625 560.215625 C 1591.054688 577.95 1609.023438 663.028125 1641.5625 648.457813 C 1642.304688 648.145313 1643.046875 647.715625 1643.75 647.285938 C 1643.75 647.285938 1670.703125 665.29375 1706.640625 539.5125 C 1706.640625 539.5125 1742.578125 413.73125 1805.429688 494.551563 C 1837.1875 535.371875 1863.046875 557.364063 1912.109375 531.309375 C 1946.445313 513.028125 1970.898438 524.864063 1994.140625 557.442188 C 1994.140625 557.442188 2039.0625 638.340625 2075 575.45 C 2087.65625 553.340625 2099.960938 530.91875 2108.671875 506.895313 C 2120.234375 474.903125 2124.570313 425.879688 2162.148438 413.028125 C 2191.875 402.910938 2210.859375 485.059375 2218.789063 503.575 L 2254.726563 629.35625 C 2254.726563 629.35625 2290.664063 755.1375 2326.601563 656.309375 L 2353.554688 566.465625 L 2380.507813 422.676563 C 2380.507813 422.676563 2416.445313 287.95 2443.398438 386.739063 L 2470.351563 467.598438 L 2497.304688 575.45 C 2502.148438 602.0125 2506.25 628.965625 2514.921875 654.629688 C 2519.84375 669.004688 2531.523438 705.020313 2546.601563 711.973438 C 2577.851563 726.465625 2591.757813 628.8875 2596.132813 611.3875 C 2596.132813 611.3875 2640.859375 441.3875 2641.054688 440.645313 C 2646.171875 421.309375 2650.117188 399.66875 2662.421875 383.2625 C 2699.140625 334.434375 2726.640625 468.379688 2730.9375 485.567188 C 2730.9375 485.567188 2748.867188 557.246875 2748.90625 557.442188 C 2755.15625 582.559375 2762.460938 608.379688 2775.664063 630.840625 C 2782.148438 641.85625 2792.1875 656.739063 2806.71875 656.54375 C 2834.6875 656.114063 2841.757813 617.832813 2848.4375 597.246875 C 2856.210938 573.2625 2864.882813 549.5125 2875.585938 526.621875 C 2889.492188 496.85625 2924.921875 434.590625 2955.546875 485.567188 C 2955.546875 485.567188 3027.421875 593.41875 3063.359375 530.489063" transform="matrix(.1 0 0 -.1 0 162.42)" fill="none" stroke-width="7.847" stroke-linejoin="round" stroke="#000" stroke-miterlimit="10" />
  </g>
</svg>